<svg xmlns="http://www.w3.org/2000/svg" version="1.1" xmlns:xlink="http://www.w3.org/1999/xlink" width="1500" height="582" viewBox="0 0 1500 582"><svg xml:space="preserve" width="1500" height="582" data-version="2" data-id="lg_F7j82eIVBcULWEPWRO" viewBox="0 0 508 582" x="0" y="0"><rect width="100%" height="100%" fill="transparent"></rect><g transform="translate(433.64 230.8)scale(6.2702)"><linearGradient id="a" x1="0" x2="1" y1="0" y2="0" gradientUnits="objectBoundingBox"><stop offset="0%" stop-color="#0f3054"></stop><stop offset="49.8%" stop-color="#3b8dcb"></stop><stop offset="100%" stop-color="#0f3054"></stop></linearGradient><path fill="url(#a)" fill-rule="evenodd" d="M88.5 28.2 68.4 59.9l.1-37.6z" transform="translate(-78.45 -41.1)"></path></g><g transform="translate(261.21 110.1)scale(6.2702)"><linearGradient id="b" x1="0" x2="1" y1="0" y2="0" gradientUnits="objectBoundingBox"><stop offset="0%" stop-color="#0f3054"></stop><stop offset="49.8%" stop-color="#3b8dcb"></stop><stop offset="100%" stop-color="#0f3054"></stop></linearGradient><path fill="url(#b)" fill-rule="evenodd" d="m49.8 5.2 17.4 33.3-32.5-18.9z" transform="translate(-50.95 -21.85)"></path></g><g transform="translate(344.92 163.09)scale(6.2702)"><linearGradient id="c" x1="0" x2="1" y1="0" y2="0" gradientUnits="objectBoundingBox"><stop offset="0%" stop-color="#0f3054"></stop><stop offset="49.8%" stop-color="#3b8dcb"></stop><stop offset="100%" stop-color="#0f3054"></stop></linearGradient><path fill="url(#c)" fill-rule="evenodd" d="M67.8 38.3v-16l-7 2.2z" transform="translate(-64.3 -30.3)"></path></g><g transform="translate(376.9 368.44)scale(6.2702)"><linearGradient id="d" x1="0" x2="1" y1="0" y2="0" gradientUnits="objectBoundingBox"><stop offset="0%" stop-color="#0f3054"></stop><stop offset="49.8%" stop-color="#3b8dcb"></stop><stop offset="100%" stop-color="#0f3054"></stop></linearGradient><path fill="url(#d)" fill-rule="evenodd" d="m88.2 73.2-37.6-1.5 32.6-18.8z" transform="translate(-69.4 -63.05)"></path></g><g transform="translate(417.97 310.75)scale(6.2702)"><linearGradient id="e" x1="0" x2="1" y1="0" y2="0" gradientUnits="objectBoundingBox"><stop offset="0%" stop-color="#0f3054"></stop><stop offset="49.8%" stop-color="#3b8dcb"></stop><stop offset="100%" stop-color="#0f3054"></stop></linearGradient><path fill="url(#e)" fill-rule="evenodd" d="m69.1 60.3 13.7-8-5.4-4.9z" transform="translate(-75.95 -53.85)"></path></g><g transform="translate(240.83 465.63)scale(6.2702)"><linearGradient id="f" x1="0" x2="1" y1="0" y2="0" gradientUnits="objectBoundingBox"><stop offset="0%" stop-color="#0f3054"></stop><stop offset="49.8%" stop-color="#3b8dcb"></stop><stop offset="100%" stop-color="#0f3054"></stop></linearGradient><path fill="url(#f)" fill-rule="evenodd" d="M48.7 95.2 31.5 61.9l32.4 19z" transform="translate(-47.7 -78.55)"></path></g><g transform="translate(306.36 450.89)scale(6.2702)"><linearGradient id="g" x1="0" x2="1" y1="0" y2="0" gradientUnits="objectBoundingBox"><stop offset="0%" stop-color="#0f3054"></stop><stop offset="49.8%" stop-color="#3b8dcb"></stop><stop offset="100%" stop-color="#0f3054"></stop></linearGradient><path fill="url(#g)" fill-rule="evenodd" d="m50.5 72.2 13.7 8 1.6-7.1z" transform="translate(-58.15 -76.2)"></path></g><g transform="translate(69.03 344.3)scale(6.2702)"><linearGradient id="h" x1="0" x2="1" y1="0" y2="0" gradientUnits="objectBoundingBox"><stop offset="0%" stop-color="#0f3054"></stop><stop offset="49.8%" stop-color="#3b8dcb"></stop><stop offset="100%" stop-color="#0f3054"></stop></linearGradient><path fill="url(#h)" fill-rule="evenodd" d="m10.1 72 20.4-31.6-.4 37.6z" transform="translate(-20.3 -59.2)"></path></g><g transform="translate(156.81 412.33)scale(6.2702)"><linearGradient id="i" x1="0" x2="1" y1="0" y2="0" gradientUnits="objectBoundingBox"><stop offset="0%" stop-color="#0f3054"></stop><stop offset="49.8%" stop-color="#3b8dcb"></stop><stop offset="100%" stop-color="#0f3054"></stop></linearGradient><path fill="url(#i)" fill-rule="evenodd" d="M30.9 62.1 30.8 78l7-2.2z" transform="translate(-34.3 -70.05)"></path></g><g transform="translate(128.28 206.04)scale(6.2702)"><linearGradient id="j" x1="0" x2="1" y1="0" y2="0" gradientUnits="objectBoundingBox"><stop offset="0%" stop-color="#0f3054"></stop><stop offset="49.8%" stop-color="#3b8dcb"></stop><stop offset="100%" stop-color="#0f3054"></stop></linearGradient><path fill="url(#j)" fill-rule="evenodd" d="m11 27 37.5 1.9-32.7 18.4z" transform="translate(-29.75 -37.15)"></path></g><g transform="translate(86.27 264.67)scale(6.2702)"><linearGradient id="k" x1="0" x2="1" y1="0" y2="0" gradientUnits="objectBoundingBox"><stop offset="0%" stop-color="#0f3054"></stop><stop offset="49.8%" stop-color="#3b8dcb"></stop><stop offset="100%" stop-color="#0f3054"></stop></linearGradient><path fill="url(#k)" fill-rule="evenodd" d="m30 40.1-13.9 7.8 5.4 5z" transform="translate(-23.05 -46.5)"></path></g><g transform="translate(196 125.15)scale(6.2702)"><linearGradient id="l" x1="0" x2="1" y1="0" y2="0" gradientUnits="objectBoundingBox"><stop offset="0%" stop-color="#0f3054"></stop><stop offset="49.8%" stop-color="#3b8dcb"></stop><stop offset="100%" stop-color="#0f3054"></stop></linearGradient><path fill="url(#l)" fill-rule="evenodd" d="m48.2 28.3-13.7-8.1-1.6 7.2z" transform="translate(-40.55 -24.25)"></path></g></svg></svg>